<svg width="292" height="42" viewBox="0 0 292 42" fill="none" xmlns="http://www.w3.org/2000/svg">
<g clip-path="url(#clip0_2859_115491)">
<path d="M0.0500488 0V6.2216H2.79177V26.4446H0.0500488V33.0554H28.6477V22.1662H20.4211V26.4446H12.9787V19.0554H21.9894V12.8338H12.9787V6.2216H20.4225V10.5H28.6491V0H0.0500488Z" fill="black"/>
<path d="M43.9284 33.0546V26.8274H40.7946V20.6366C40.7946 18.706 41.1938 16.4618 43.4997 16.4618C46.1681 16.4618 45.8874 19.1106 45.8874 20.6366V33.0546H57.2492V26.8274H55.2888V19.5138C55.2888 14.8 54.1126 9.63818 47.1088 9.63818C45.8133 9.66266 44.5442 10.006 43.4153 10.6374C42.2865 11.2688 41.3331 12.1685 40.6409 13.2558L39.6001 10.4992H29.825V16.3274H31.7839V26.8274H29.825V33.049L43.9284 33.0546Z" fill="black"/>
<path d="M56.8552 10.4997V16.3335H59.5969V24.2743C59.5969 30.0143 59.9185 33.7019 66.7023 33.7019C68.5413 33.6422 70.3657 33.3558 72.1335 32.8493V27.1009C71.226 27.4976 70.263 27.7548 69.2776 27.8639C67.5132 27.8639 67.8235 25.7989 67.8235 24.2729V16.3335H72.1321V10.4997H67.8249V3.66772L59.5984 6.31652V10.4997H56.8552Z" fill="black"/>
<path d="M88.1895 19.4391H81.3986C81.3876 18.9757 81.4691 18.5147 81.6385 18.0828C81.8079 17.6509 82.0618 17.2565 82.3856 16.9225C82.7093 16.5885 83.0965 16.3215 83.5248 16.1369C83.953 15.9522 84.4139 15.8536 84.8808 15.8467C87.7763 15.8467 88.1824 17.8837 88.2276 19.4391H88.1895ZM95.5092 23.7161C96.2347 21.2662 96.2033 18.6566 95.4189 16.2247C94.1073 12.4531 89.9919 9.76367 84.61 9.76367C77.7811 9.76367 72.4443 14.1415 72.4443 21.5041C72.4443 30.1239 78.7754 33.6841 84.383 33.6841C88.6335 33.9268 92.814 32.5293 96.0508 29.7837L92.2513 25.4325C90.4827 26.8952 88.2179 27.6319 85.9202 27.4919C82.1222 27.4919 81.534 25.2715 81.2661 23.7119L95.5092 23.7161Z" fill="black"/>
<path d="M109.741 33.0569V26.8367H107.392V22.3889C107.392 18.4381 109.741 16.4207 113.659 16.4207V10.4567C109.349 9.43327 108.358 10.5211 106.693 13.3463L105.38 10.5001H96.814V16.3367H98.7715V26.8367H96.814V33.0583L109.741 33.0569Z" fill="black"/>
<path d="M132.06 21.9392C132.06 25.351 130.75 27.5504 128.85 27.5504C127.131 27.5504 125.593 25.2166 125.593 22.1632C125.411 18.617 127.04 16.4232 128.805 16.4232C130.795 16.4232 132.061 19.2512 132.061 21.9448L132.06 21.9392ZM141.784 21.8552C141.784 15.4796 138.167 10.0952 131.111 10.0952C129.12 10.1368 127.197 10.8253 125.638 12.0552L124.87 10.5152H114.442V16.3322H116.401V36.166H114.442V41.9998H128.153V36.166H125.411V31.6356C127.144 32.8734 129.249 33.4904 131.381 33.3856C137.216 33.3856 141.784 28.9868 141.784 21.8482" fill="black"/>
<path d="M161.004 4.30284C161.076 5.46096 161.592 6.54783 162.445 7.34052C163.299 8.1332 164.426 8.57162 165.595 8.56584C166.191 8.62353 166.793 8.55584 167.361 8.36716C167.929 8.17848 168.45 7.87306 168.891 7.47082C169.333 7.06858 169.683 6.57856 169.921 6.03269C170.158 5.48683 170.277 4.8974 170.27 4.30284C170.209 3.1223 169.686 2.012 168.813 1.20823C167.94 0.404464 166.785 -0.0293048 165.595 -0.000762099C165.008 -0.017919 164.425 0.079841 163.876 0.286924C163.328 0.494006 162.827 0.806347 162.4 1.20607C161.974 1.6058 161.631 2.08506 161.391 2.61644C161.152 3.14782 161.02 3.72088 161.004 4.30284" fill="#29990B"/>
<path d="M172.422 33.0556V26.834H170.071V10.4988H159.886V16.3326H161.453V26.8326H159.886V33.0542L172.422 33.0556Z" fill="black"/>
<path d="M173.206 33.0546H178.979L179.386 30.235C180.19 31.29 181.239 32.1357 182.444 32.6993C183.649 33.2628 184.975 33.5274 186.306 33.4704C190.693 33.4704 194.717 30.9364 194.717 26.7154C194.717 22.0016 190.872 20.6954 187.437 19.5222C184.543 18.5352 181.874 17.9906 181.874 16.7334C181.874 15.6134 182.688 15.185 183.637 15.185C185.894 15.185 188.25 16.725 188.25 18.664H193.969V10.4992H188.566L188.205 13.4392C187.494 12.3151 186.497 11.3978 185.313 10.7804C184.13 10.1629 182.802 9.86741 181.467 9.92378C178.255 9.92378 173.507 11.8474 173.507 16.4268C173.507 20.6464 176.446 22.528 179.522 23.606C182.778 24.726 186.17 24.9514 186.17 26.2982C186.17 27.5582 185.084 27.862 184.18 27.862C182.823 27.862 179.385 27.225 179.385 24.8912H173.205L173.206 33.0546Z" fill="black"/>
<path d="M210.814 19.4383H204.113C204.102 18.975 204.184 18.514 204.353 18.0821C204.523 17.6502 204.777 17.2558 205.1 16.9218C205.424 16.5878 205.811 16.3208 206.24 16.1361C206.668 15.9515 207.129 15.8528 207.596 15.8459C210.49 15.8459 210.897 17.8829 210.942 19.4383H210.814ZM218.224 23.7153C218.949 21.2654 218.917 18.6557 218.132 16.2239C216.821 12.4523 212.705 9.76294 207.325 9.76294C200.496 9.76294 195.159 14.1407 195.159 21.5033C195.159 30.1231 201.492 33.6833 207.099 33.6833C211.35 33.9261 215.53 32.5286 218.767 29.7829L214.968 25.4317C213.199 26.8939 210.934 27.6305 208.636 27.4911C204.838 27.4911 204.249 25.2707 203.982 23.7111L218.224 23.7153Z" fill="black"/>
<path d="M154.799 33.0566V26.8364H152.448V22.3886C152.448 18.4378 154.799 16.286 159.108 16.286V10.4564C154.407 9.43303 153.71 10.5208 152.045 13.346L150.634 10.4998H142.261V16.3364H144.22V26.8364H142.261V33.058L154.799 33.0566Z" fill="black"/>
<path d="M236.795 33.0571V27.5859H239.805L238.676 23.9599H230.025L228.946 27.5859H231.908V33.0585H219.504V27.5397H222.127L228.536 8.88886H225.137V3.41626H239.631L247.923 27.5397H250.542V33.0585L236.795 33.0571ZM234.361 9.70926L231.581 18.8093H237.139L234.361 9.70926Z" fill="#29990B"/>
<path d="M278.216 33.0571V27.5397H281.063L280.558 9.71066L274.724 33.0585H266.778L260.943 9.71066L260.414 27.5397H263.286V33.0585H250.837V27.5397H253.983L254.742 8.88886H251.573V3.41626H266.594L271.39 23.3439L276.168 3.41626H291.19V8.88886H288.046L288.781 27.5397H291.951V33.0585L278.216 33.0571Z" fill="#29990B"/>
</g>
<defs>
<clipPath id="clip0_2859_115491">
<rect width="291.9" height="42" fill="white" transform="translate(0.0500488)"/>
</clipPath>
</defs>
</svg>
