<svg width="341" height="67" viewBox="0 0 341 67" fill="none" xmlns="http://www.w3.org/2000/svg">
<g clip-path="url(#clip0_5381_10579)">
<path d="M0.125891 0V9.74163H4.39463V41.3737H0.125891V51.7366H44.5665V34.6989H31.7556V41.3737H20.1908V29.8066H34.2024V20.0649H20.1908V9.74163H31.7568V16.4163H44.5676V0H0.124725L0.125891 0ZM68.2788 51.7366V41.995H63.4284V32.2941C63.4284 29.268 64.0509 25.7442 67.6156 25.7442C71.7607 25.7442 71.3049 29.8893 71.3049 32.2953V51.7366H88.9651V41.995H85.9389V30.5526C85.9389 23.1738 84.1147 15.0898 73.212 15.0898C68.7766 15.0898 65.5418 17.4526 63.1801 20.769L61.5633 16.4583H46.3896V25.5786H49.4157V41.995H46.3896V51.7366H68.2788ZM88.3461 16.4175V25.5378H92.616V37.9745C92.616 46.9701 93.1126 52.7321 103.643 52.7321C105.259 52.7321 109.654 52.2355 112.099 51.4055V42.4099C110.899 42.9905 108.577 43.6118 107.664 43.6118C104.928 43.6118 105.426 40.3782 105.426 37.9745V25.5367H112.099V16.4175H105.426V5.72118L92.6568 9.86752V16.4175H88.3461ZM137.057 30.429H126.527C126.65 28.6047 127.646 24.7906 131.916 24.7906C136.393 24.7906 137.057 27.9834 137.097 30.429M148.415 37.1038C149.908 33.4552 149.12 27.8587 148.291 25.3711C146.218 19.4844 139.834 15.2973 131.501 15.2973C120.889 15.2973 112.597 22.1375 112.597 33.6626C112.597 47.1356 122.423 52.7321 131.128 52.7321C138.424 52.7321 144.062 51.1153 149.245 46.6379L143.357 39.7976C139.585 42.9485 135.896 43.0313 133.533 43.0313C127.646 43.0313 126.733 39.5494 126.277 37.1038H148.415ZM170.508 51.7366V41.9938H166.861V35.0288C166.861 28.8519 170.508 25.7022 176.602 25.7022V16.3744C169.928 14.7576 168.353 16.456 165.783 20.8926L163.751 16.4571H150.444V25.5775H153.471V41.9938H150.444V51.7366H170.508ZM205.168 34.3259C205.168 39.6729 203.136 43.1152 200.192 43.1152C197.539 43.1152 195.136 39.4666 195.136 34.6989C194.845 29.1433 197.374 25.7022 200.11 25.7022C203.219 25.7022 205.168 30.0968 205.168 34.3259ZM220.299 34.2012C220.299 24.2113 214.661 15.795 203.716 15.795C199.488 15.795 196.545 17.8676 195.218 18.8619L194.015 16.4583H177.807V25.5786H180.833V56.629H177.807V65.7493H199.115V56.629H194.845V49.5404C195.467 49.9543 198.285 52.2763 204.131 52.2763C213.21 52.2343 220.299 45.3521 220.299 34.2012Z" fill="black"/>
<path d="M250.146 6.71551C250.146 9.86636 253.13 13.3902 257.276 13.3902C261.96 13.3902 264.53 10.3641 264.53 6.71551C264.53 3.68939 261.836 0 257.276 0C252.632 0 250.146 3.68939 250.146 6.71551Z" fill="#29990B"/>
<path d="M267.891 51.7367V41.9951H264.242V16.4164H248.406V25.5787H250.852V41.9951H248.406V51.7367H267.891ZM269.093 51.7367H278.047L278.669 47.3421C280.368 49.9963 284.349 52.4011 289.406 52.4011C296.205 52.4011 302.465 48.4203 302.465 41.8284C302.465 34.4496 296.495 32.419 291.147 30.5947C286.67 29.0606 282.525 28.1899 282.525 26.242C282.525 24.5005 283.768 23.8372 285.261 23.8372C288.784 23.8372 292.432 26.242 292.432 29.2681H301.304V16.4164H292.93L292.391 21.0186C290.899 17.9925 286.712 15.5049 281.944 15.5049C276.969 15.5049 269.59 18.531 269.59 25.6615C269.59 32.2534 274.15 35.1968 278.918 36.8964C283.975 38.6367 289.24 39.0098 289.24 41.1243C289.24 43.0733 287.541 43.5699 286.131 43.5699C284.017 43.5699 278.669 42.5756 278.669 38.927H269.052V51.7379L269.093 51.7367ZM327.503 30.4291H317.098C317.222 28.6048 318.217 24.7907 322.487 24.7907C326.964 24.7907 327.627 27.9835 327.669 30.4291M339.028 37.1039C340.52 33.4553 339.733 27.86 338.903 25.3712C336.872 19.4845 330.488 15.2566 322.114 15.2566C311.501 15.2566 303.21 22.0968 303.21 33.622C303.21 47.0949 313.035 52.6914 321.741 52.6914C329.037 52.6914 334.675 51.0746 339.857 46.5972L333.97 39.7989C330.156 42.9486 326.508 43.0314 324.145 43.0314C318.259 43.0314 317.346 39.5495 316.89 37.1039H339.028ZM240.488 51.7367V41.9939H236.84V35.0289C236.84 28.852 240.488 25.4936 247.204 25.4936V16.3745C239.908 14.7577 238.83 16.4561 236.218 20.8927L234.022 16.4572H221.005V25.5776H224.031V41.9939H221.005V51.7367H240.488Z" fill="black"/>
</g>
<defs>
<clipPath id="clip0_5381_10579">
<rect width="340.38" height="66.444" fill="white"/>
</clipPath>
</defs>
</svg>
